<svg width="661" height="586" viewBox="0 0 661 586" fill="none" xmlns="http://www.w3.org/2000/svg">
<path fill-rule="evenodd" clip-rule="evenodd" d="M332.916 25.7981C386.096 29.9937 438.888 13.7432 488.9 32.3068C551.831 55.6664 624.113 82.106 650.684 143.751C677.632 206.269 640.483 275.403 621.915 340.901C602.5 409.385 595.173 487.12 540.439 532.63C484.442 579.191 404.683 593.57 332.916 581.198C266.756 569.792 223.069 512.141 171.592 469.043C124.376 429.513 72.8762 395.519 45.3452 340.437C14.3982 278.521 -14.2888 206.963 7.81307 141.367C29.8552 75.9484 92.9185 29.3204 157.963 6.19791C214.643 -13.9509 272.948 21.0669 332.916 25.7981Z" fill="#F4C33B"/>
</svg>
